<mxfile host="app.diagrams.net" modified="2024-03-05T02:20:21.247Z" agent="Mozilla/5.0 (Windows NT 10.0; Win64; x64) AppleWebKit/537.36 (KHTML, like Gecko) Chrome/122.0.0.0 Safari/537.36" etag="q5pltJbHVF5-xznkms7A" version="24.0.1" type="github">
  <diagram name="Page-1" id="03018318-947c-dd8e-b7a3-06fadd420f32">
    <mxGraphModel dx="1596" dy="938" grid="1" gridSize="10" guides="1" tooltips="1" connect="1" arrows="1" fold="1" page="1" pageScale="1" pageWidth="1100" pageHeight="850" background="#ffffff" math="0" shadow="0">
      <root>
        <mxCell id="0" />
        <mxCell id="1" parent="0" />
        <mxCell id="677b7b8949515195-1" value="" style="whiteSpace=wrap;html=1;rounded=0;shadow=0;labelBackgroundColor=none;strokeColor=#000000;strokeWidth=1;fillColor=none;fontFamily=Verdana;fontSize=12;fontColor=#000000;align=center;comic=1;" parent="1" vertex="1">
          <mxGeometry x="20" y="20" width="1060" height="1660" as="geometry" />
        </mxCell>
        <mxCell id="677b7b8949515195-2" value="LOGO" style="whiteSpace=wrap;html=1;rounded=0;shadow=0;labelBackgroundColor=none;strokeWidth=1;fontFamily=Verdana;fontSize=28;align=center;comic=1;" parent="1" vertex="1">
          <mxGeometry x="40" y="60" width="190" height="50" as="geometry" />
        </mxCell>
        <mxCell id="677b7b8949515195-4" value="&lt;p style=&quot;line-height: 0%; font-size: 21px;&quot;&gt;TRIANGULOS&lt;/p&gt;" style="text;html=1;points=[];align=left;verticalAlign=top;spacingTop=-4;fontSize=14;fontFamily=Verdana" parent="1" vertex="1">
          <mxGeometry x="490" y="60" width="150" height="20" as="geometry" />
        </mxCell>
        <mxCell id="677b7b8949515195-9" value="" style="line;strokeWidth=1;html=1;rounded=0;shadow=0;labelBackgroundColor=none;fillColor=none;fontFamily=Verdana;fontSize=14;fontColor=#000000;align=center;comic=1;" parent="1" vertex="1">
          <mxGeometry x="20" y="140" width="1060" height="10" as="geometry" />
        </mxCell>
        <mxCell id="677b7b8949515195-10" value="" style="whiteSpace=wrap;html=1;rounded=0;shadow=0;labelBackgroundColor=none;strokeWidth=1;fillColor=none;fontFamily=Verdana;fontSize=12;align=center;comic=1;" parent="1" vertex="1">
          <mxGeometry x="30" y="160" width="1040" height="50" as="geometry" />
        </mxCell>
        <mxCell id="677b7b8949515195-11" value="Home&lt;div&gt;&lt;br&gt;&lt;/div&gt;" style="text;html=1;points=[];align=left;verticalAlign=top;spacingTop=-4;fontSize=14;fontFamily=Verdana" parent="1" vertex="1">
          <mxGeometry x="880" y="175" width="60" height="20" as="geometry" />
        </mxCell>
        <mxCell id="677b7b8949515195-12" value="Contact" style="text;html=1;points=[];align=left;verticalAlign=top;spacingTop=-4;fontSize=14;fontFamily=Verdana" parent="1" vertex="1">
          <mxGeometry x="980" y="175" width="80" height="20" as="geometry" />
        </mxCell>
        <mxCell id="677b7b8949515195-16" value="" style="verticalLabelPosition=bottom;shadow=0;dashed=0;align=center;html=1;verticalAlign=top;strokeWidth=1;shape=mxgraph.mockup.graphics.simpleIcon;strokeColor=#999999;rounded=0;labelBackgroundColor=none;fontFamily=Verdana;fontSize=14;fontColor=#000000;comic=1;" parent="1" vertex="1">
          <mxGeometry x="370" y="330" width="320" height="230" as="geometry" />
        </mxCell>
        <mxCell id="677b7b8949515195-26" value="" style="whiteSpace=wrap;html=1;rounded=0;shadow=0;labelBackgroundColor=none;strokeWidth=1;fillColor=none;fontFamily=Verdana;fontSize=12;align=center;comic=1;" parent="1" vertex="1">
          <mxGeometry x="440" y="590" width="170" height="27" as="geometry" />
        </mxCell>
        <mxCell id="677b7b8949515195-42" value="Lado C" style="text;html=1;points=[];align=left;verticalAlign=top;spacingTop=-4;fontSize=14;fontFamily=Verdana" parent="1" vertex="1">
          <mxGeometry x="450" y="593.5" width="120" height="20" as="geometry" />
        </mxCell>
        <mxCell id="DK1McTmNDOFeW-bg4iEK-3" value="" style="whiteSpace=wrap;html=1;rounded=0;shadow=0;labelBackgroundColor=none;strokeWidth=1;fillColor=none;fontFamily=Verdana;fontSize=12;align=center;comic=1;" parent="1" vertex="1">
          <mxGeometry x="720" y="365" width="170" height="27" as="geometry" />
        </mxCell>
        <mxCell id="DK1McTmNDOFeW-bg4iEK-4" value="Lado B" style="text;html=1;points=[];align=left;verticalAlign=top;spacingTop=-4;fontSize=14;fontFamily=Verdana" parent="1" vertex="1">
          <mxGeometry x="730" y="368.5" width="120" height="20" as="geometry" />
        </mxCell>
        <mxCell id="DK1McTmNDOFeW-bg4iEK-5" value="" style="whiteSpace=wrap;html=1;rounded=0;shadow=0;labelBackgroundColor=none;strokeWidth=1;fillColor=none;fontFamily=Verdana;fontSize=12;align=center;comic=1;" parent="1" vertex="1">
          <mxGeometry x="440" y="647" width="170" height="27" as="geometry" />
        </mxCell>
        <mxCell id="DK1McTmNDOFeW-bg4iEK-6" value="Angulo 3" style="text;html=1;points=[];align=left;verticalAlign=top;spacingTop=-4;fontSize=14;fontFamily=Verdana" parent="1" vertex="1">
          <mxGeometry x="450" y="650.5" width="120" height="20" as="geometry" />
        </mxCell>
        <mxCell id="DK1McTmNDOFeW-bg4iEK-7" value="" style="whiteSpace=wrap;html=1;rounded=0;shadow=0;labelBackgroundColor=none;strokeWidth=1;fillColor=none;fontFamily=Verdana;fontSize=12;align=center;comic=1;" parent="1" vertex="1">
          <mxGeometry x="720" y="425" width="170" height="27" as="geometry" />
        </mxCell>
        <mxCell id="DK1McTmNDOFeW-bg4iEK-8" value="Angulo 2" style="text;html=1;points=[];align=left;verticalAlign=top;spacingTop=-4;fontSize=14;fontFamily=Verdana" parent="1" vertex="1">
          <mxGeometry x="730" y="428.5" width="120" height="20" as="geometry" />
        </mxCell>
        <mxCell id="DK1McTmNDOFeW-bg4iEK-9" value="" style="whiteSpace=wrap;html=1;rounded=0;shadow=0;labelBackgroundColor=none;strokeWidth=1;fillColor=none;fontFamily=Verdana;fontSize=12;align=center;comic=1;" parent="1" vertex="1">
          <mxGeometry x="160" y="439" width="170" height="27" as="geometry" />
        </mxCell>
        <mxCell id="DK1McTmNDOFeW-bg4iEK-10" value="Angulo 1" style="text;html=1;points=[];align=left;verticalAlign=top;spacingTop=-4;fontSize=14;fontFamily=Verdana" parent="1" vertex="1">
          <mxGeometry x="170" y="442.5" width="120" height="20" as="geometry" />
        </mxCell>
        <mxCell id="DK1McTmNDOFeW-bg4iEK-11" value="" style="whiteSpace=wrap;html=1;rounded=0;shadow=0;labelBackgroundColor=none;strokeWidth=1;fillColor=none;fontFamily=Verdana;fontSize=12;align=center;comic=1;" parent="1" vertex="1">
          <mxGeometry x="167" y="379" width="170" height="27" as="geometry" />
        </mxCell>
        <mxCell id="DK1McTmNDOFeW-bg4iEK-12" value="Lado A" style="text;html=1;points=[];align=left;verticalAlign=top;spacingTop=-4;fontSize=14;fontFamily=Verdana" parent="1" vertex="1">
          <mxGeometry x="170" y="382.5" width="120" height="20" as="geometry" />
        </mxCell>
        <mxCell id="DK1McTmNDOFeW-bg4iEK-14" value="" style="verticalLabelPosition=bottom;verticalAlign=top;html=1;shape=mxgraph.basic.orthogonal_triangle" parent="1" vertex="1">
          <mxGeometry x="410" y="365" width="240" height="115" as="geometry" />
        </mxCell>
        <mxCell id="DK1McTmNDOFeW-bg4iEK-15" value="&lt;div&gt;Lados:&lt;/div&gt;" style="text;html=1;points=[];align=left;verticalAlign=top;spacingTop=-4;fontSize=14;fontFamily=Verdana" parent="1" vertex="1">
          <mxGeometry x="167" y="345" width="60" height="20" as="geometry" />
        </mxCell>
        <mxCell id="DK1McTmNDOFeW-bg4iEK-16" value="&lt;div&gt;Angulos:&lt;/div&gt;" style="text;html=1;points=[];align=left;verticalAlign=top;spacingTop=-4;fontSize=14;fontFamily=Verdana" parent="1" vertex="1">
          <mxGeometry x="160" y="412.5" width="60" height="20" as="geometry" />
        </mxCell>
        <mxCell id="DK1McTmNDOFeW-bg4iEK-18" value="Buscar" style="shape=ext;margin=3;double=1;whiteSpace=wrap;html=1;align=center;" parent="1" vertex="1">
          <mxGeometry x="280" y="714" width="100" height="40" as="geometry" />
        </mxCell>
        <mxCell id="DK1McTmNDOFeW-bg4iEK-19" value="Reset" style="shape=ext;margin=3;double=1;whiteSpace=wrap;html=1;align=center;" parent="1" vertex="1">
          <mxGeometry x="640" y="710.5" width="100" height="40" as="geometry" />
        </mxCell>
        <mxCell id="DK1McTmNDOFeW-bg4iEK-21" value="A" style="text;html=1;points=[];align=left;verticalAlign=top;spacingTop=-4;fontSize=14;fontFamily=Verdana" parent="1" vertex="1">
          <mxGeometry x="380" y="419" width="20" height="20" as="geometry" />
        </mxCell>
        <mxCell id="DK1McTmNDOFeW-bg4iEK-22" value="B" style="text;html=1;align=center;verticalAlign=middle;whiteSpace=wrap;rounded=0;" parent="1" vertex="1">
          <mxGeometry x="490" y="379" width="60" height="30" as="geometry" />
        </mxCell>
        <mxCell id="DK1McTmNDOFeW-bg4iEK-23" value="C" style="text;html=1;align=center;verticalAlign=middle;whiteSpace=wrap;rounded=0;" parent="1" vertex="1">
          <mxGeometry x="480" y="490" width="60" height="30" as="geometry" />
        </mxCell>
        <mxCell id="ZGJR8tcNTTk9wTW0G2rH-3" value="Área:&amp;nbsp;" style="text;html=1;points=[];align=left;verticalAlign=top;spacingTop=-4;fontSize=14;fontFamily=Verdana" vertex="1" parent="1">
          <mxGeometry x="240" y="900" width="120" height="20" as="geometry" />
        </mxCell>
        <mxCell id="ZGJR8tcNTTk9wTW0G2rH-4" value="Perímetro:" style="text;html=1;points=[];align=left;verticalAlign=top;spacingTop=-4;fontSize=14;fontFamily=Verdana" vertex="1" parent="1">
          <mxGeometry x="240" y="980" width="120" height="20" as="geometry" />
        </mxCell>
        <mxCell id="ZGJR8tcNTTk9wTW0G2rH-5" value="Tipo de Triangulo:&amp;nbsp;&amp;nbsp;" style="text;html=1;points=[];align=left;verticalAlign=top;spacingTop=-4;fontSize=14;fontFamily=Verdana" vertex="1" parent="1">
          <mxGeometry x="240" y="1060" width="120" height="20" as="geometry" />
        </mxCell>
        <mxCell id="ZGJR8tcNTTk9wTW0G2rH-6" value="Tipo de Angulo:&amp;nbsp;" style="text;html=1;points=[];align=left;verticalAlign=top;spacingTop=-4;fontSize=14;fontFamily=Verdana" vertex="1" parent="1">
          <mxGeometry x="240" y="1140" width="120" height="20" as="geometry" />
        </mxCell>
        <mxCell id="ZGJR8tcNTTk9wTW0G2rH-7" value="" style="endArrow=none;html=1;rounded=0;exitX=0.434;exitY=0.548;exitDx=0;exitDy=0;exitPerimeter=0;" edge="1" parent="1">
          <mxGeometry width="50" height="50" relative="1" as="geometry">
            <mxPoint x="290.03999999999996" y="920.0000000000003" as="sourcePoint" />
            <mxPoint x="400" y="920.32" as="targetPoint" />
          </mxGeometry>
        </mxCell>
        <mxCell id="ZGJR8tcNTTk9wTW0G2rH-8" value="" style="endArrow=none;html=1;rounded=0;exitX=0.434;exitY=0.548;exitDx=0;exitDy=0;exitPerimeter=0;" edge="1" parent="1">
          <mxGeometry width="50" height="50" relative="1" as="geometry">
            <mxPoint x="329.99999999999994" y="1000.0000000000003" as="sourcePoint" />
            <mxPoint x="439.96" y="1000.32" as="targetPoint" />
          </mxGeometry>
        </mxCell>
        <mxCell id="ZGJR8tcNTTk9wTW0G2rH-9" value="" style="endArrow=none;html=1;rounded=0;exitX=0.434;exitY=0.548;exitDx=0;exitDy=0;exitPerimeter=0;" edge="1" parent="1">
          <mxGeometry width="50" height="50" relative="1" as="geometry">
            <mxPoint x="379.99999999999994" y="1080.0000000000005" as="sourcePoint" />
            <mxPoint x="489.96" y="1080.3200000000002" as="targetPoint" />
          </mxGeometry>
        </mxCell>
        <mxCell id="ZGJR8tcNTTk9wTW0G2rH-10" value="" style="endArrow=none;html=1;rounded=0;exitX=0.434;exitY=0.548;exitDx=0;exitDy=0;exitPerimeter=0;" edge="1" parent="1">
          <mxGeometry width="50" height="50" relative="1" as="geometry">
            <mxPoint x="369.99999999999994" y="1160.0000000000005" as="sourcePoint" />
            <mxPoint x="479.96" y="1160.3200000000002" as="targetPoint" />
          </mxGeometry>
        </mxCell>
        <mxCell id="ZGJR8tcNTTk9wTW0G2rH-11" value="" style="shape=image;verticalLabelPosition=bottom;labelBackgroundColor=default;verticalAlign=top;aspect=fixed;imageAspect=0;image=data:image/jpeg,/9j/4AAQSkZJRgABAQAAAQABAAD/2wCEAAkGBwgHBgkIBwgKCgkLDRYPDQwMDRsUFRAWIB0iIiAdHx8kKDQsJCYxJx8fLT0tMTU3Ojo6Iys/RD84QzQ5OjcBCgoKDQwNGg8PGjclHyU3Nzc3Nzc3Nzc3Nzc3Nzc3Nzc3Nzc3Nzc3Nzc3Nzc3Nzc3Nzc3Nzc3Nzc3Nzc3Nzc3N//AABEIAJAAeQMBIgACEQEDEQH/xAAcAAACAwEBAQEAAAAAAAAAAAAABgQFBwMCAQj/xAA4EAACAQMCBAQFAgQFBQAAAAABAgMABBEFIQYSMUETUWFxIjJCgZEUoQcjscEVFlLh8ENiksLR/8QAFAEBAAAAAAAAAAAAAAAAAAAAAP/EABQRAQAAAAAAAAAAAAAAAAAAAAD/2gAMAwEAAhEDEQA/ANxooooCivDSIucsNq5+LzDIOBQdSwHWuMk7AZRM+5rw0hzhASajSrJjfbJoPUt1OBnKj0rkdTdSwDRNyfMM1Hurd3IzOqgYPWqW/l0+GNmuNTES9TgY/rQNEOrQOeVzyH0ORUxLmB8BJUJPQZ3rL/8AG9EaYx21zdXEmMEr39KlYE3M8El4rHqJI+gxQaXRSdpmrXlmAszm4jGxG+ftTZbTx3MKywtzI3Q0HWiiigKKKKArjPIVwB1Ndqg38qpIAxwSuxoI0xJU/wCrmx714e+gtYneWRcIcMTsM+VQr/UGitpfBZBIBnL9FrJ+P+J5J5Bp9nMxt4+yjLSv3J/NBpdzxxp8EbOXUIv1ZyM+Q86TNV/iseaRLK15sfKWPX1rPV02/u0WS5nEKN0XO4qQF0PTQouWFy/1HPNigtb/AIm1/WcNdajDYwHsz8px7darmvNDsuVriabVbjPckID7d/zUWfWeH+YcmlRuB1+A/Efeu1pxVw7ayK8fD6hxvz53HtvtQXEmt609sF0jRr23gA6xxeCv7Df8100e+1dyDepKpz9T5wPzVDqvEek6hkwvqdu564nLKPsTUXT2EsoeHWfiznw50IyPzQbPYajGFUOjM+MfCMirJNTe0KS21rOSPoGwb0NIHD66zCyuz2VyAexKEDPtin3T7+eSELNaEd8iQMKBl0rVotRUgI0UwGTG/X7HvVjSzYOIr+F8BeZuU58jTNQFFFFAUt8W3sdgEmmzyLEzEgZ6Ebe5JA/NMlLvHOjT61oMsFmxFyh54x/rx9P/ADuBQZpxZrDPCQoeOR1+TPxAHzpIE8VtLLfSqed1wylup89+9PN9pCXhv7y+vFENmzx8pyrlu3T386z+60mSa8jUTu4knWMeIcHdsdKB+4b4Im12xgvdRZ4LeRA0cKH4mU75J7Z8qaU4B4ftkAXS7fPdnQMx+5pjN5p2i2UUM86QpGgRVx2Ax0G9Ulxx1ojMyrJLnOB/KO/rQQLvgbQJFINhbjY/9MUq6r/D/SOYiGLk8sHFNF3xNp9ypMFwQRuQQRVHr2qPbWEd2dkf5T5igRbzgGXxWW3nAGfqXpUix/htqMmCLuEE9mQ4phg1ZJbrwkfLYBx70xaBrdpdSiNbhC4bl5W2JP3oE624Y4m0XmdUxEhx4kUhZcexG1XUXEV9YWniXNyPgXccg3PbFaS6obCRj8vISfxWUyCw4itIBcOI5SoIZdixwN/I+xoLfSeL4dTm8KXLBmTKMc7k48q1zT2L2UDNkkoNz3rMeEeBbO11OCdI5ptg7GRhypvvtWrAADA6UH2iiigKDRRQZ1xLZy6Rqsy2VvcXEd+WuGVcHw2HXGev57+lUnBvD1pqGpS31wjPJburjmJPK5JOD6itQ1S0aYpNEeWWNWCt5Zqt0qxlsdPkS55Tcs7M8i/XucH8UCXxZwprOoXjyWdzFLG/Z2KkehO9Jeu8I3OlygEtIAMszICPsa22KdFiwxAPrVFrGhNqcoa3vZ4wT8oPw/igxuK3v5LuOztoJAzEANg4HrWsa5wtFcRaXbzpzQryiVT38zV3onDVppqht5Z2OXkfqalatKf19tF9PMM0GA8QtcaPrN3YJCsKRzEIOXqufhPrt3qLbXX6i4jSFykjOAgKjr71qf8AEvhibVJYL6z5PGhQqyMPnXr/APaWeDtNe21YNNZxLGBh84OT27+YoGrRbu8XSr20kcvcRwPyqc7nBHf1BFJWjaO9zKf07xM8XxeEwKl8elaxa2kAnluY4xzMuCRSM9jDYcUm3guGU9YwqfJzZwCfKg0jhBWNiZmjaPOE5SMdKYKg6LC1vpsKOMNuT9yTU6gKKKKAooooPMgyp2zVeAOVlU5HqasqrJn5ZCEH170FNdRP4vKOldvGjtIeeRuUKNzU+SNZiWHzAVXPoy3sviXshFsvRBtz+/pQdOH9Rk1ATz8oW1VhHGxO7N3+1ctS1Cz/AMVgiaQeI7gL75qDxN/htxaLBY6gLCe3z4ZhcADG3KV7iset9Rvf80xXGoPLJHbygc/RV5vlOPLcGg1rjDUZLCSDmjzBJ8If/u8qXLfJU3doNs4IqVqdhd8ScP5tdSaabn8ZUdVUZwRy7dMb71C4LeR5HtbhWinjfEiMMY27/fH4oHTTJzJZDYgiuFvoNvd8QpqDfOQo5e23f8VLjVYyIlGCeuOwq50i3wDcHG45Vx+9BZDYV9oooCiiigKKKKAqjuWdbuflblCdj32z1q8qo1YRxTB5BhZBgk9MjHWg52z8kZDtlty2OmTvt6UmfxR4lm0qySOzkKy/FnB7YA/9v2pxkOx5F+Lsvr2rMP4g6Uup3UFhZsZ7+Zgh77k5PsPT80C9oPCWv63p3+Ly6qttCwLJzfEze9LvEVrrNihmuJ45YWO8id+2SD7Cts0jgi3s9Djsru5m5lX4mikwAe+KXuJf4dSXGmzR6bfSysDlYpgCP2FBmXDXGOraXdL4MhkViOZCM5GQTitjaeG4tLTX4U5ZJCI5Nt2GTyn3BB+1Zrwhwhdw8SvDfQ4McL9/r2wCPbNaLDZzf5bNvFG6TR3ERaM4BXDZJ9iCN/egYtLm/Ur+pb6tvcA/7006ehSziB68ufzSfw/ExhRMHlLnG3m2f707gYAHlQfaKKKAooooCiiigKi6gAIQ5A+FqkswUZYgAdzVVql4ksHh27cxz8w6UHOTw44jy4GcZPpml7hWwtFlvNV8MtM07qrsc4X09zU9nN5zW4lEbAfEepAr2UhsLJLePPKp2z1Y55if60HHU9YW1t3mIJSPPN9jv+xqHDqpeQxqdmyy5PXO39R+9LHFVwZreKzif+ZdS8mxz8J5c/0/emGy0aG2YStJJzQAAJ57df3P4oIHEc6aTq9nqvMojkdIpd+uc5P/AI/2q2inVNPx9S3AhyPIk/03qo4w0WPW7eCMTtG1uvidOueuR7L+1deGUmhtnW4diwn5mVuqnoR+RQMsFyEvouVeVOZfbGSKZ6RZ7gBWldwAN81baTxfp90Fiu5P0842Jk2Un37fegZKK8o6uoZCGUjIIOQa9UBRRRQFRr27W1j5iMsdlXPWpDEKpJOANzStdXjXdyXOQvRB6UHW4uZbk5lbI7KOgohP0nb0qL4jDKhsHPcV0jcjDZGM/mg5O6Wk8h+qcjlwPIAV2luI4YCZ8eI2djg4HWolzIwxIVBdDlcnHuKpr6/mvomhtOYuOgO3w+p/NBFmeObXLYNEiuwBB25hzbKPffJPpt0qyvtViYXJVn5HlERdNyAo3YemTj7Gs913UpoNR0+MSnn5kjMsfp8J/Y7VZTzRI9t4SCOI80SPzbqCMkffb8mgabG4lvLm+LRs0DEBW6qyhd+X3ORUq8f9C1xL3mYKik+m5HpvmovDV6ggNocKFHOhJ2x5/wBvtS5xHrT3V9I0TcqDKL6Dpt70HziHXRiO3ib4U6nz9qojqRL55j6YPaqu/m/nBejDb3P/ADaq9lljKMkmd8HPXFA+aRxNfabMTZXLKNvgO6n3HSnvR/4gLLypqltyZ6yQ7j7r1/FYrayS7uTk56Z6Ve2EsgwTuO9B+grW6gu4VltpVkjboVNdqz3gG6dLxY+YlZQQQT5DP9q0HNBE1aYQWMjZxzfCPvSqJgAeXttjPWrziZ/5EEYOMuWx54H+9LEk/LIBtnO9BKZwG69Rkjyr74mFKg7VXSy80h5ScmvCTlfmU0FiZ8ttvtS/qlxFZl4w5iE5Yhh0zsCPxn81Oact0JGardUgS7tXgkyVYHB8j50CNrssFnaaZLO0jXHiLM4wBgsy9e/Tt06DtUhktNRc2/iNHNE5aCbchWA6HtjB/NLWu8MawhJMkc8EIwvKx5iM9SD3386rNN1W+tJY0jLyOj5VXO6nO+D6gUGru0ulaNO0q8k0gSJQCCEzknBHUHt70sXd8vP4xyDjAHauGp8UfqrWztpEx4EKowJ+ZgOtUd1cc0X8o5HffcUE9rhZcKwzncd8VIgRZAM55htVLa8xIwPXJ61eWqkqpGc0HaG3+Pp1q5jtcL8JxXC0gPNnbPrVpCu2Qc7+dA08GMUvIPJWG/p0rScnyrL+HXMN2mDnOK0/xF86D//Z;" vertex="1" parent="1">
          <mxGeometry x="670" y="880" width="235.28" height="280" as="geometry" />
        </mxCell>
      </root>
    </mxGraphModel>
  </diagram>
</mxfile>
